<svg xmlns="http://www.w3.org/2000/svg" fill-rule="evenodd" stroke-linejoin="bevel" stroke-width=".501" overflow="visible" viewBox="0 0 318.75 41.25">
  <g font-family="Times New Roman" font-size="16">
    <path fill-rule="nonzero" d="M284.112 29.763c-.507-.218-.871-.502-1.091-.853-.22-.35-.306-.691-.258-1.024a.96.96 0 0 1 .515-.743c.297-.164.708-.165 1.234-.006 2.403.767 4.655 1.017 6.755.751a15.27 15.27 0 0 0 5.862-1.987c1.808-1.06 3.477-2.397 5.009-4.012a37.967 37.967 0 0 0 4.195-5.32 60.512 60.512 0 0 0 3.422-5.911 93.039 93.039 0 0 0 2.507-5.361c-.384.158-.757.317-1.12.472a53.69 53.69 0 0 0-2.894 1.349 51.274 51.274 0 0 0-2.959 1.62 78.04 78.04 0 0 0-3.365 2.113c-.471.3-.934.479-1.384.534-.451.055-.829.013-1.131-.129-.303-.142-.468-.357-.495-.646-.027-.29.148-.629.526-1.018a39.329 39.329 0 0 1 7.13-5.595 38.468 38.468 0 0 1 8.398-3.869A1.968 1.968 0 0 1 316 .081c.334.078.625.229.871.454.249.225.418.507.51.842a40.968 40.968 0 0 1 1.061 5.443c.224 1.796.311 3.614.262 5.451a39.85 39.85 0 0 1-.579 5.689c-.102.545-.288.944-.554 1.2-.266.255-.554.372-.862.35-.308-.023-.576-.179-.807-.47-.228-.292-.359-.714-.389-1.264-.072-1.887-.172-3.59-.304-5.11a123.2 123.2 0 0 0-.433-4.264l-.122-1.018a55.034 55.034 0 0 1-1.868 5.421 45.872 45.872 0 0 1-3.459 6.866 32.165 32.165 0 0 1-4.596 5.878c-1.722 1.733-3.633 3.112-5.734 4.14-2.102 1.028-4.393 1.579-6.873 1.654-2.48.074-5.151-.453-8.012-1.58Z"/>
    <text xml:space="preserve" stroke-linecap="round" stroke-linejoin="round" stroke-miterlimit="79.84" stroke-width=".25" font-family="Duck Step" font-size="48" transform="translate(-2.159 38.522)"><tspan x="0" y="0">cl</tspan><tspan x="36.539" y="0">ick a le</tspan><tspan x="188.509" y="0">tt</tspan><tspan x="229.455" y="0">er</tspan></text>
  </g>
</svg>
