<svg xmlns="http://www.w3.org/2000/svg" fill-rule="evenodd" stroke-linejoin="bevel" stroke-width=".501" overflow="visible" viewBox="0 0 318.75 41.25">
  <path fill-rule="nonzero" d="M284.112 29.763c-.507-.218-.871-.502-1.091-.853-.22-.35-.306-.691-.258-1.024a.96.96 0 0 1 .515-.743c.297-.164.708-.165 1.234-.006 2.403.767 4.655 1.017 6.755.751a15.27 15.27 0 0 0 5.862-1.987c1.808-1.06 3.477-2.397 5.009-4.012a37.967 37.967 0 0 0 4.195-5.32 60.512 60.512 0 0 0 3.422-5.911 93.039 93.039 0 0 0 2.507-5.361c-.384.158-.757.317-1.12.472a53.69 53.69 0 0 0-2.894 1.349 51.274 51.274 0 0 0-2.959 1.62 78.04 78.04 0 0 0-3.365 2.113c-.471.3-.934.479-1.384.534-.451.055-.829.013-1.131-.129-.303-.142-.468-.357-.495-.646-.027-.29.148-.629.526-1.018a39.329 39.329 0 0 1 7.13-5.595 38.468 38.468 0 0 1 8.398-3.869A1.968 1.968 0 0 1 316 .081c.334.078.625.229.871.454.249.225.418.507.51.842a40.968 40.968 0 0 1 1.061 5.443c.224 1.796.311 3.614.262 5.451a39.85 39.85 0 0 1-.579 5.689c-.102.545-.288.944-.554 1.2-.266.255-.554.372-.862.35-.308-.023-.576-.179-.807-.47-.228-.292-.359-.714-.389-1.264-.072-1.887-.172-3.59-.304-5.11a123.2 123.2 0 0 0-.433-4.264l-.122-1.018a55.034 55.034 0 0 1-1.868 5.421 45.872 45.872 0 0 1-3.459 6.866 32.165 32.165 0 0 1-4.596 5.878c-1.722 1.733-3.633 3.112-5.734 4.14-2.102 1.028-4.393 1.579-6.873 1.654-2.48.074-5.151-.453-8.012-1.58ZM15.31 28.525c-.13.906-.444 1.802-.941 2.689a9.4 9.4 0 0 1-1.859 2.351c-.743.681-1.548 1.164-2.416 1.449a4.01 4.01 0 0 1-2.612-.019c-.872-.297-1.688-.981-2.448-2.051a5.812 5.812 0 0 1-.929-2.369 8.622 8.622 0 0 1 .015-2.71c.148-.939.41-1.874.784-2.803.259-.623.667-1.198 1.226-1.725a6.976 6.976 0 0 1 1.913-1.278 5.575 5.575 0 0 1 2.173-.516 3.46 3.46 0 0 1 2.009.562c.606.394 1.078 1.045 1.416 1.955.187.49.42.782.7.877.28.094.546.04.797-.164.253-.203.43-.507.533-.91.103-.404.071-.859-.095-1.365-.387-1.053-.955-1.896-1.706-2.531a6.064 6.064 0 0 0-2.578-1.289 7.571 7.571 0 0 0-3.012-.073 8.74 8.74 0 0 0-3.004 1.118 9.955 9.955 0 0 0-2.748 2.456 11.84 11.84 0 0 0-1.771 3.252 12.843 12.843 0 0 0-.737 3.644c-.07 1.248.048 2.459.351 3.636.269.997.711 1.864 1.325 2.6a7.468 7.468 0 0 0 2.202 1.798 9.15 9.15 0 0 0 2.763.963c.989.179 1.993.209 3.011.092 1.204-.15 2.288-.509 3.252-1.077a9.326 9.326 0 0 0 2.515-2.16 11.579 11.579 0 0 0 1.727-2.896c.442-1.06.739-2.156.893-3.29.057-.524-.033-.928-.269-1.212a1.256 1.256 0 0 0-.892-.468 1.397 1.397 0 0 0-.998.319c-.308.24-.504.622-.59 1.145Zm15.195 4.376a4.41 4.41 0 0 1-.943.874c-.33.22-.662.296-.995.227-.333-.069-.655-.353-.967-.855-.098-.175-.178-.443-.238-.802a12.91 12.91 0 0 1-.134-1.18c-.03-.426-.05-.827-.062-1.203-.01-.375-.018-.667-.02-.875-.044-2.68-.033-5.361.031-8.04.061-2.533.172-5.062.332-7.588.16-2.525.361-5.049.603-7.57.036-.527-.073-.933-.326-1.218a1.345 1.345 0 0 0-.929-.468 1.398 1.398 0 0 0-1.004.318c-.303.241-.487.621-.552 1.143-.755 3.284-1.347 6.5-1.776 9.648a61.974 61.974 0 0 0-.573 9.295c.048 3.05.406 6.071 1.076 9.062.32 1.347.806 2.36 1.46 3.039.652.679 1.4 1.058 2.242 1.137.843.078 1.708-.11 2.595-.566.887-.455 1.726-1.144 2.515-2.067.328-.413.461-.834.401-1.265a1.887 1.887 0 0 0-.545-1.098 1.624 1.624 0 0 0-1.057-.495c-.401-.027-.779.155-1.134.547Zm9.678-13.13c-.164-.496-.4-.833-.708-1.013a1.146 1.146 0 0 0-.94-.127c-.32.096-.578.308-.776.639-.198.331-.269.759-.213 1.284a340.2 340.2 0 0 1 .04 4.271c.004 1.469.111 2.926.321 4.37a13.821 13.821 0 0 0 1.274 4.116c.581 1.124 1.082 1.877 1.502 2.258.421.382.765.495 1.032.342.268-.154.464-.472.587-.952a6 6 0 0 0 .164-1.624 46.834 46.834 0 0 0-.676-6.848 53.74 53.74 0 0 0-1.607-6.716Zm-.657-4.619a1.84 1.84 0 0 0 .091-1.105 1.813 1.813 0 0 0-.564-.953 1.889 1.889 0 0 0-1.103-.462 1.747 1.747 0 0 0-1.155.296 1.64 1.64 0 0 0-.41.417 1.48 1.48 0 0 0-.226.515 1.34 1.34 0 0 0-.18.491c-.028.177-.017.358.034.545.127.421.345.75.654.985.308.235.65.369 1.027.403.377.033.732-.042 1.065-.227.334-.184.589-.486.767-.905Zm22.636 13.373c-.13.906-.444 1.802-.941 2.689a9.4 9.4 0 0 1-1.859 2.351c-.743.681-1.548 1.164-2.416 1.449a4.01 4.01 0 0 1-2.612-.019c-.872-.297-1.688-.981-2.448-2.051a5.812 5.812 0 0 1-.929-2.369 8.622 8.622 0 0 1 .015-2.71c.148-.939.41-1.874.784-2.803.259-.623.667-1.198 1.226-1.725a6.976 6.976 0 0 1 1.913-1.278 5.575 5.575 0 0 1 2.173-.516 3.46 3.46 0 0 1 2.009.562c.606.394 1.078 1.045 1.416 1.955.187.49.42.782.7.877.28.094.546.04.797-.164.253-.203.43-.507.533-.91.103-.404.071-.859-.095-1.365-.387-1.053-.955-1.896-1.706-2.531a6.064 6.064 0 0 0-2.578-1.289 7.571 7.571 0 0 0-3.012-.073 8.74 8.74 0 0 0-3.004 1.118 9.955 9.955 0 0 0-2.748 2.456 11.84 11.84 0 0 0-1.771 3.252 12.843 12.843 0 0 0-.737 3.644c-.07 1.248.048 2.459.351 3.636.269.997.711 1.864 1.325 2.6a7.468 7.468 0 0 0 2.202 1.798 9.15 9.15 0 0 0 2.763.963c.989.179 1.993.209 3.011.092 1.204-.15 2.288-.509 3.252-1.077a9.326 9.326 0 0 0 2.515-2.16 11.579 11.579 0 0 0 1.727-2.896c.442-1.06.739-2.156.893-3.29.057-.524-.033-.928-.269-1.212a1.256 1.256 0 0 0-.892-.468 1.397 1.397 0 0 0-.998.319c-.308.24-.504.622-.59 1.145Zm27.361-13.691a180.085 180.085 0 0 1-7.606 4.118 185.522 185.522 0 0 1-7.784 3.75c-.388-3.113-.804-6.2-1.247-9.259a126.399 126.399 0 0 0-1.749-9.434c-.129-.509-.343-.857-.644-1.041a1.124 1.124 0 0 0-.941-.131c-.326.097-.594.31-.802.641-.209.332-.286.758-.23 1.279l2.508 19.311c-.23.099-.459.201-.686.303-.229.103-.458.203-.688.301a1.267 1.267 0 0 0-.67.709 1.882 1.882 0 0 0-.106 1.014c.058.352.208.638.452.861.386.333.776.659 1.17.976.394.317.79.629 1.19.935l1.372 10.562c.078.522.248.909.508 1.16.261.252.55.372.868.36.318-.012.602-.152.854-.422.25-.268.405-.663.464-1.183.072-.826.09-1.698.053-2.616a41.74 41.74 0 0 0-.2-2.743 94.681 94.681 0 0 0-.305-2.574c1.484 1.122 3.023 2.014 4.616 2.676 1.592.66 3.18 1.155 4.765 1.483.698.129 1.229.078 1.591-.153.364-.232.504-.532.422-.9-.082-.368-.441-.692-1.078-.972a46.036 46.036 0 0 1-3.816-1.753 41.748 41.748 0 0 1-3.774-2.195 27.291 27.291 0 0 1-3.288-2.505l-.171-1.318a125.046 125.046 0 0 0 8.337-4.035 75.246 75.246 0 0 0 8.013-4.932c.424-.316.68-.656.767-1.019.087-.363.043-.686-.131-.97-.174-.284-.44-.466-.798-.544-.358-.079-.77.008-1.236.26Zm43.007 18.747c-1.091-.118-1.912-.432-2.462-.942a3.49 3.49 0 0 1-1.062-1.868 7.247 7.247 0 0 1-.114-2.296c.083-.796.211-1.537.385-2.226.174-.688.318-1.24.433-1.656.109-.47.072-.828-.11-1.074-.183-.246-.448-.386-.796-.421-.349-.035-.718.029-1.107.192-.39.163-.737.417-1.042.764a23.781 23.781 0 0 0-1.638 2.22 71.713 71.713 0 0 1-1.556 2.285 14.116 14.116 0 0 1-1.807 2.082 5.847 5.847 0 0 1-2.154 1.271 5.266 5.266 0 0 1-2.415.214c-.814-.118-1.569-.449-2.266-.995-.546-.453-.911-.992-1.096-1.616a4.585 4.585 0 0 1-.131-1.962c.097-.683.294-1.34.593-1.971a6.783 6.783 0 0 1 1.075-1.647 9.775 9.775 0 0 1 2.934-2.158 19.585 19.585 0 0 1 3.475-1.286c.18-.046.423-.104.727-.175.303-.071.605-.165.905-.285.3-.119.535-.275.705-.466.169-.192.211-.432.124-.721-.093-.234-.284-.412-.575-.533a3.436 3.436 0 0 0-.932-.242 4.824 4.824 0 0 0-.818-.042 12.228 12.228 0 0 0-3.481.716c-1.177.418-2.3.983-3.371 1.693a14.341 14.341 0 0 0-2.84 2.467 10.384 10.384 0 0 0-1.888 3.033 7.455 7.455 0 0 0-.516 3.397c.093 1.175.519 2.36 1.28 3.554.792 1.194 1.688 2.027 2.686 2.5 1 .472 2.049.653 3.149.543 1.101-.11 2.2-.441 3.298-.992a15.332 15.332 0 0 0 3.134-2.107 18.78 18.78 0 0 0 2.657-2.801c-.022 1.347.248 2.516.811 3.509a5.116 5.116 0 0 0 2.365 2.185c1.014.465 2.187.581 3.517.345.924-.192 1.51-.469 1.759-.829.248-.36.207-.703-.123-1.03-.33-.327-.9-.536-1.712-.629Zm28.499-.68a4.41 4.41 0 0 1-.943.874c-.33.22-.662.296-.995.227-.333-.069-.655-.353-.967-.855-.098-.175-.178-.443-.238-.802a12.91 12.91 0 0 1-.134-1.18c-.03-.426-.05-.827-.062-1.203-.01-.375-.018-.667-.02-.875-.044-2.68-.033-5.361.031-8.04.061-2.533.172-5.062.332-7.588.16-2.525.361-5.049.603-7.57.036-.527-.073-.933-.326-1.218a1.345 1.345 0 0 0-.929-.468 1.398 1.398 0 0 0-1.004.318c-.303.241-.487.621-.552 1.143-.755 3.284-1.347 6.5-1.776 9.648a61.974 61.974 0 0 0-.573 9.295c.048 3.05.406 6.071 1.076 9.062.32 1.347.806 2.36 1.46 3.039.652.679 1.4 1.058 2.242 1.137.843.078 1.708-.11 2.595-.566.887-.455 1.726-1.144 2.515-2.067.328-.413.461-.834.401-1.265a1.887 1.887 0 0 0-.545-1.098 1.624 1.624 0 0 0-1.057-.495c-.401-.027-.779.155-1.134.547Zm24.941-5.392c-.091-.341-.287-.567-.586-.679a1.172 1.172 0 0 0-.915.037c-.08.038-.16.082-.237.132-.077.05-.152.104-.225.163a6.83 6.83 0 0 0-.52.476 9.761 9.761 0 0 1-.496.472c-.695.6-1.426 1.147-2.196 1.641-.768.494-1.578.894-2.428 1.2a8.917 8.917 0 0 1-2.684.512c-.422.018-.843.01-1.263-.023a4.82 4.82 0 0 1-1.227-.26 3.633 3.633 0 0 1-.53-.244 4.131 4.131 0 0 1-.488-.319 4.29 4.29 0 0 1-.432-.387 17.583 17.583 0 0 0-.412-.408c.452-.066.899-.147 1.338-.245a8.394 8.394 0 0 0 2.483-.984 9.054 9.054 0 0 0 1.889-1.488c.254-.262.492-.538.716-.826a7.156 7.156 0 0 0 1.14-2.212 5.89 5.89 0 0 0 .249-2.497c-.098-.833-.443-1.575-1.034-2.224a3.568 3.568 0 0 0-.769-.607 3.937 3.937 0 0 0-.902-.384 5.59 5.59 0 0 0-2.503-.09 8.113 8.113 0 0 0-2.505.914 9.457 9.457 0 0 0-2.171 1.667 7.813 7.813 0 0 0-1.505 2.167 8.257 8.257 0 0 0-.738 3.068 9.549 9.549 0 0 0 .408 3.136 7.998 7.998 0 0 0 1.898 3.291c.89.931 1.982 1.587 3.276 1.967 1.055.3 2.111.475 3.168.524a9.79 9.79 0 0 0 3.093-.348c1.004-.28 1.953-.762 2.846-1.444a13.667 13.667 0 0 0 1.808-1.702 17.386 17.386 0 0 0 1.509-1.975c.122-.176.265-.379.429-.608.164-.23.301-.467.411-.713.11-.244.145-.478.105-.7Zm-15.876-1.152a4.163 4.163 0 0 1 .089-1.625 5.756 5.756 0 0 1 .674-1.625c.31-.517.686-.959 1.126-1.326a3.405 3.405 0 0 1 1.45-.729 2.658 2.658 0 0 1 1.064.003c.191.041.375.102.55.185.125.057.24.129.346.217.106.086.194.188.266.306.223.412.254.855.091 1.329a4.484 4.484 0 0 1-.748 1.343 7.595 7.595 0 0 1-.952 1.018 3.717 3.717 0 0 1-.963.606c-.347.152-.707.28-1.079.385a8.654 8.654 0 0 1-.63.174 2.707 2.707 0 0 1-.819.083c-.258-.014-.414-.13-.465-.344Zm35.961-10.799c-.83-.04-1.556-.068-2.181-.082a48.87 48.87 0 0 0-1.779-.012c-.561.006-1.162.02-1.8.041l-2.246.08c.046-.017.106-.179.178-.487.073-.308.146-.67.22-1.084.075-.414.14-.79.195-1.126l.102-.616c.227-1.159.459-2.316.697-3.472.057-.247.133-.53.229-.848.096-.319.168-.638.216-.958.048-.32.028-.604-.059-.855-.19-.452-.436-.675-.741-.667-.305.008-.621.147-.949.418a5.78 5.78 0 0 0-.884.912c-.26.337-.442.609-.544.816-.342.69-.665 1.391-.968 2.102a33.805 33.805 0 0 0-.83 2.159c-.038.119-.11.393-.216.822-.105.43-.223.903-.352 1.421-.13.518-.249.968-.358 1.351-.108.383-.184.585-.228.609-.53.067-1.008.119-1.434.156-.425.037-.851.072-1.276.106-.426.034-.904.08-1.436.138-.596.081-1.047.278-1.352.591-.304.312-.474.654-.509 1.023-.035.369.054.68.266.931.213.252.537.356.975.315a54.07 54.07 0 0 1 2.096-.214 53.87 53.87 0 0 0 2.096-.214c-.058.02-.118.196-.178.529-.062.332-.12.748-.177 1.247a66.017 66.017 0 0 0-.156 1.526 205.96 205.96 0 0 0-.178 2.121 38.57 38.57 0 0 0-.143 2.943c-.01.983.034 1.964.134 2.943.073.778.206 1.639.398 2.582.193.942.48 1.852.862 2.728.381.876.892 1.604 1.534 2.183.64.579 1.446.895 2.416.947a4.835 4.835 0 0 0 1.61-.236 8.18 8.18 0 0 0 1.496-.654c.454-.267.772-.588.956-.964.182-.376.247-.722.193-1.04-.054-.317-.21-.522-.467-.614-.258-.091-.6.014-1.028.316-.544.391-1.014.497-1.408.317-.394-.181-.725-.555-.993-1.121-.268-.567-.485-1.234-.651-2.004a23.63 23.63 0 0 1-.38-2.331 38.882 38.882 0 0 1-.242-3.425 28.862 28.862 0 0 1 .048-2.68c.058-.892.158-1.78.303-2.664l.076-.527c.041-.285.091-.602.149-.951.06-.35.121-.654.184-.914.064-.259.124-.397.18-.414a88.612 88.612 0 0 1 2.315-.12 36.68 36.68 0 0 0 1.858-.112 16.59 16.59 0 0 0 1.865-.276c.66-.134 1.438-.338 2.333-.614.555-.184.927-.434 1.118-.747.191-.313.191-.602.003-.868-.19-.266-.576-.42-1.158-.462Zm22.031 0c-.83-.04-1.556-.068-2.181-.082a48.87 48.87 0 0 0-1.779-.012c-.561.006-1.162.02-1.8.041l-2.246.08c.046-.017.106-.179.178-.487.073-.308.146-.67.22-1.084.075-.414.14-.79.195-1.126l.102-.616c.227-1.159.459-2.316.697-3.472.057-.247.133-.53.229-.848.096-.319.168-.638.216-.958.048-.32.028-.604-.059-.855-.19-.452-.436-.675-.741-.667-.305.008-.621.147-.949.418a5.78 5.78 0 0 0-.884.912c-.26.337-.442.609-.544.816-.342.69-.665 1.391-.968 2.102a33.805 33.805 0 0 0-.83 2.159c-.038.119-.11.393-.216.822-.105.43-.223.903-.352 1.421-.13.518-.249.968-.358 1.351-.108.383-.184.585-.228.609-.53.067-1.008.119-1.434.156-.425.037-.851.072-1.276.106-.426.034-.904.08-1.436.138-.596.081-1.047.278-1.352.591-.304.312-.474.654-.509 1.023-.035.369.054.68.266.931.213.252.537.356.975.315a54.07 54.07 0 0 1 2.096-.214 53.87 53.87 0 0 0 2.096-.214c-.058.02-.118.196-.178.529-.062.332-.12.748-.177 1.247a66.017 66.017 0 0 0-.156 1.526 205.96 205.96 0 0 0-.178 2.121 38.57 38.57 0 0 0-.143 2.943c-.01.983.034 1.964.134 2.943.073.778.206 1.639.398 2.582.193.942.48 1.852.862 2.728.381.876.892 1.604 1.534 2.183.64.579 1.446.895 2.416.947a4.835 4.835 0 0 0 1.61-.236 8.18 8.18 0 0 0 1.496-.654c.454-.267.772-.588.956-.964.182-.376.247-.722.193-1.04-.054-.317-.21-.522-.467-.614-.258-.091-.6.014-1.028.316-.544.391-1.014.497-1.408.317-.394-.181-.725-.555-.993-1.121-.268-.567-.485-1.234-.651-2.004a23.63 23.63 0 0 1-.38-2.331 38.882 38.882 0 0 1-.242-3.425 28.862 28.862 0 0 1 .048-2.68c.058-.892.158-1.78.303-2.664l.076-.527c.041-.285.091-.602.149-.951.06-.35.121-.654.184-.914.064-.259.124-.397.18-.414a88.612 88.612 0 0 1 2.315-.12 36.68 36.68 0 0 0 1.858-.112 16.59 16.59 0 0 0 1.865-.276c.66-.134 1.438-.338 2.333-.614.555-.184.927-.434 1.118-.747.191-.313.191-.602.003-.868-.19-.266-.576-.42-1.158-.462Zm20.042 11.951c-.091-.341-.287-.567-.586-.679a1.172 1.172 0 0 0-.915.037c-.08.038-.16.082-.237.132-.077.05-.152.104-.225.163a6.83 6.83 0 0 0-.52.476 9.761 9.761 0 0 1-.496.472c-.695.6-1.426 1.147-2.196 1.641-.768.494-1.578.894-2.428 1.2a8.917 8.917 0 0 1-2.684.512c-.422.018-.843.01-1.263-.023a4.82 4.82 0 0 1-1.227-.26 3.633 3.633 0 0 1-.53-.244 4.131 4.131 0 0 1-.488-.319 4.29 4.29 0 0 1-.432-.387 17.583 17.583 0 0 0-.412-.408c.452-.066.899-.147 1.338-.245a8.394 8.394 0 0 0 2.483-.984 9.054 9.054 0 0 0 1.889-1.488c.254-.262.492-.538.716-.826a7.156 7.156 0 0 0 1.14-2.212 5.89 5.89 0 0 0 .249-2.497c-.098-.833-.443-1.575-1.034-2.224a3.568 3.568 0 0 0-.769-.607 3.937 3.937 0 0 0-.902-.384 5.59 5.59 0 0 0-2.503-.09 8.113 8.113 0 0 0-2.505.914 9.457 9.457 0 0 0-2.171 1.667 7.813 7.813 0 0 0-1.505 2.167 8.257 8.257 0 0 0-.738 3.068 9.549 9.549 0 0 0 .408 3.136 7.998 7.998 0 0 0 1.898 3.291c.89.931 1.982 1.587 3.276 1.967 1.055.3 2.111.475 3.168.524a9.79 9.79 0 0 0 3.093-.348c1.004-.28 1.953-.762 2.846-1.444a13.667 13.667 0 0 0 1.808-1.702 17.386 17.386 0 0 0 1.509-1.975c.122-.176.265-.379.429-.608.164-.23.301-.467.411-.713.11-.244.145-.478.105-.7Zm-15.876-1.152a4.163 4.163 0 0 1 .089-1.625 5.756 5.756 0 0 1 .674-1.625c.31-.517.686-.959 1.126-1.326a3.405 3.405 0 0 1 1.45-.729 2.658 2.658 0 0 1 1.064.003c.191.041.375.102.55.185.125.057.24.129.346.217.106.086.194.188.266.306.223.412.254.855.091 1.329a4.484 4.484 0 0 1-.748 1.343 7.595 7.595 0 0 1-.952 1.018 3.717 3.717 0 0 1-.963.606c-.347.152-.707.28-1.079.385a8.654 8.654 0 0 1-.63.174 2.707 2.707 0 0 1-.819.083c-.258-.014-.414-.13-.465-.344Zm36.325-3.745a6.078 6.078 0 0 0-.088-.359c-.302-.99-.82-1.755-1.554-2.296a5.63 5.63 0 0 0-2.531-1.032 8.008 8.008 0 0 0-2.865.082c-.957.2-1.81.548-2.558 1.042a8.373 8.373 0 0 0-1.862 1.738 24.993 24.993 0 0 0-1.428 2.044c-.026-.559-.07-1.08-.128-1.562a4.409 4.409 0 0 0-.476-1.477c-.378-.684-.769-1.11-1.171-1.279-.402-.168-.767-.146-1.094.067-.327.213-.567.549-.72 1.008-.154.459-.172.975-.053 1.547.292 1.312.479 2.506.56 3.584.08 1.076.088 2.094.022 3.054a34.672 34.672 0 0 1-.322 2.875l-.468 3.048c-.06.515.044.947.31 1.293.266.347.602.579 1.006.697.405.117.785.09 1.14-.082.356-.172.594-.519.712-1.041.202-1.072.424-2.152.666-3.238a26.8 26.8 0 0 1 .918-3.189c.37-1.04.851-2.029 1.44-2.965.257-.408.542-.832.858-1.274.314-.443.654-.86 1.02-1.253a5.804 5.804 0 0 1 1.16-.971c.445-.267.95-.452 1.516-.554a4.801 4.801 0 0 1 1.682-.01 3.264 3.264 0 0 1 1.468.629c.198.165.386.341.566.527.179.187.373.356.58.508.313.217.638.312.976.287.337-.025.576-.24.715-.645.037-.131.053-.264.051-.4a2.026 2.026 0 0 0-.048-.403Z" font-family="Times New Roman" font-size="16"/>
</svg>
