<svg xmlns="http://www.w3.org/2000/svg" viewBox="0 0 405 150">
  <g>
    <path fill="#ea546c" d="m53.399 78.317-2.62-9.973h-17.29l-2.692 9.973H15l17.362-53.43h19.181l17.579 53.43H53.399Zm-5.605-21.765-2.293-8.736a322.632 322.632 0 0 1-1.948-7.533c-.765-3.083-1.268-5.291-1.51-6.625-.218 1.237-.649 3.275-1.292 6.115-.643 2.839-2.069 8.432-4.277 16.779h11.32Zm76.87 21.765v-22.42c.001-2.791-.381-4.884-1.147-6.279-.764-1.395-1.971-2.093-3.621-2.093-2.183 0-3.785.934-4.805 2.803-1.019 1.868-1.528 4.791-1.528 8.771v19.218H99.296v-22.42c0-2.791-.365-4.884-1.093-6.279-.728-1.395-1.904-2.093-3.53-2.093-2.232 0-3.858.995-4.877 2.985-1.02 1.99-1.529 5.241-1.529 9.754v18.053H74.036V37.079h10.737l1.783 5.096h.837c1.092-1.893 2.675-3.337 4.75-4.332 2.075-.993 4.434-1.491 7.079-1.491 5.945 0 10.119 1.807 12.521 5.422h1.129c1.164-1.698 2.783-3.027 4.858-3.984 2.075-.959 4.362-1.438 6.861-1.438 4.877 0 8.481 1.249 10.811 3.748 2.329 2.5 3.494 6.297 3.494 11.393v26.824h-14.232Zm50.811 0-2.731-5.459h-.29c-1.917 2.377-3.87 4.003-5.861 4.876-1.989.874-4.562 1.311-7.716 1.311-3.883 0-6.94-1.165-9.172-3.494-2.233-2.33-3.349-5.605-3.348-9.827-.001-4.393 1.528-7.662 4.585-9.81 3.058-2.147 7.486-3.354 13.285-3.621l6.88-.218v-.582c0-3.398-1.674-5.096-5.024-5.096-3.008 0-6.83 1.019-11.464 3.057l-4.114-9.39c4.805-2.474 10.872-3.712 18.2-3.712 5.289 0 9.384 1.31 12.284 3.931 2.899 2.62 4.349 6.284 4.349 10.991v27.043h-9.863ZM164.919 69c1.723 0 3.198-.546 4.422-1.638 1.226-1.091 1.838-2.511 1.838-4.258V59.9l-3.276.146c-4.682.169-7.024 1.892-7.024 5.169 0 2.523 1.347 3.785 4.04 3.785Zm56.124 9.317V55.823c0-2.741-.395-4.81-1.184-6.205-.788-1.395-2.057-2.093-3.803-2.093-2.402 0-4.136.959-5.205 2.875-1.067 1.918-1.601 5.205-1.601 9.864v18.053h-14.231V37.079h10.737l1.783 5.096h.837c1.214-1.941 2.895-3.397 5.042-4.368 2.147-.97 4.616-1.455 7.406-1.455 4.563 0 8.111 1.323 10.646 3.967 2.536 2.645 3.804 6.369 3.804 11.174v26.824h-14.231Zm36.723.728c-2.936 0-5.501-.837-7.697-2.512-2.196-1.674-3.895-4.137-5.096-7.387-1.201-3.252-1.801-7.05-1.802-11.393.001-6.697 1.348-11.939 4.041-15.724 2.693-3.785 6.393-5.677 11.1-5.677 2.306 0 4.325.461 6.061 1.383 1.735.922 3.318 2.475 4.749 4.659h.291a68.548 68.548 0 0 1-.691-9.683V21.684h14.341v56.633h-10.737l-3.059-5.204h-.545c-2.451 3.955-6.102 5.932-10.956 5.932Zm5.824-11.246c2.281 0 3.888-.716 4.822-2.148.935-1.431 1.438-3.64 1.511-6.624v-1.129c0-3.639-.522-6.229-1.565-7.771-1.043-1.54-2.681-2.311-4.914-2.311-1.868 0-3.317.879-4.349 2.639-1.032 1.759-1.547 4.265-1.547 7.517 0 3.202.522 5.641 1.565 7.315 1.044 1.675 2.536 2.512 4.477 2.512Zm56.198 10.518-2.731-5.459h-.29c-1.917 2.377-3.87 4.003-5.861 4.876-1.989.874-4.562 1.311-7.716 1.311-3.883 0-6.94-1.165-9.172-3.494-2.233-2.33-3.349-5.605-3.348-9.827-.001-4.393 1.528-7.662 4.585-9.81 3.058-2.147 7.486-3.354 13.285-3.621l6.88-.218v-.582c0-3.398-1.674-5.096-5.024-5.096-3.008 0-6.83 1.019-11.464 3.057l-4.114-9.39c4.805-2.474 10.872-3.712 18.2-3.712 5.289 0 9.384 1.31 12.284 3.931 2.899 2.62 4.349 6.284 4.349 10.991v27.043h-9.863ZM309.232 69c1.723 0 3.198-.546 4.422-1.638 1.226-1.091 1.838-2.511 1.838-4.258V59.9l-3.276.146c-4.682.169-7.024 1.892-7.024 5.169 0 2.523 1.347 3.785 4.04 3.785Zm41.821-43.895-1.493 19.217h-9.973l-1.492-19.217h12.958Zm38.944 40.546c0 4.416-1.504 7.753-4.514 10.01-3.008 2.257-7.327 3.384-12.956 3.384-3.058 0-5.714-.164-7.971-.491-2.257-.328-4.563-.928-6.916-1.802V65.359c2.209.972 4.629 1.773 7.262 2.403 2.633.631 4.98.946 7.042.947 3.081-.001 4.622-.704 4.622-2.111 0-.728-.43-1.377-1.292-1.948-.861-.57-3.366-1.681-7.516-3.33-3.785-1.553-6.43-3.318-7.934-5.296-1.505-1.978-2.256-4.484-2.256-7.516 0-3.834 1.479-6.817 4.44-8.953 2.96-2.135 7.146-3.203 12.557-3.203 2.717 0 5.271.297 7.661.891 2.391.594 4.871 1.462 7.443 2.603l-3.857 9.171a43.262 43.262 0 0 0-6.006-2.165c-2.111-.595-3.834-.892-5.168-.892-2.33 0-3.494.571-3.494 1.71 0 .704.405 1.305 1.219 1.803.813.497 3.161 1.509 7.042 3.038 2.889 1.189 5.042 2.354 6.461 3.495 1.42 1.139 2.463 2.48 3.13 4.022.668 1.54 1.001 3.415 1.001 5.623Z"/>
    <path fill="#000" d="M228.575 119.364h-14.833V92.758h14.833v2.748h-11.739v8.571h11.029v2.73h-11.029v9.791h11.739v2.766Zm30.864 0v-12.975c0-1.59-.34-2.782-1.019-3.577-.68-.794-1.735-1.192-3.166-1.191-1.881-.001-3.27.539-4.168 1.619-.898 1.08-1.346 2.742-1.346 4.986v11.138h-3.021v-12.975c-.001-1.59-.341-2.782-1.02-3.577-.679-.794-1.741-1.192-3.185-1.191-1.892-.001-3.279.566-4.158 1.701-.88 1.134-1.319 2.994-1.32 5.578v10.464h-3.02V99.418h2.457l.491 2.73h.145c.571-.971 1.374-1.729 2.412-2.275 1.037-.546 2.199-.818 3.485-.818 3.118 0 5.156 1.128 6.114 3.385h.146c.595-1.044 1.456-1.869 2.585-2.476 1.128-.606 2.413-.909 3.858-.909 2.256 0 3.946.579 5.068 1.737 1.122 1.159 1.683 3.012 1.683 5.56v13.012h-3.021Zm18.527.364c-1.298 0-2.484-.24-3.558-.719-1.074-.479-1.974-1.216-2.703-2.211h-.218c.146 1.165.219 2.269.218 3.312v8.208h-3.02v-28.9h2.457l.418 2.73h.145c.777-1.092 1.681-1.88 2.712-2.366 1.032-.485 2.214-.727 3.549-.727 2.645 0 4.686.903 6.124 2.711 1.437 1.808 2.156 4.343 2.156 7.607 0 3.276-.731 5.82-2.193 7.634-1.461 1.814-3.491 2.721-6.087 2.721Zm-.437-18.107c-2.038-.001-3.512.563-4.422 1.692-.91 1.128-1.377 2.924-1.402 5.387v.673c.001 2.803.468 4.807 1.402 6.015.934 1.207 2.433 1.81 4.495 1.81 1.723 0 3.073-.697 4.049-2.093.977-1.395 1.465-3.318 1.465-5.768 0-2.488-.488-4.396-1.465-5.724-.976-1.329-2.35-1.993-4.122-1.992Zm31.21 7.752c0 3.251-.818 5.79-2.456 7.616-1.638 1.827-3.901 2.739-6.788 2.739-1.784 0-3.367-.418-4.75-1.256-1.383-.837-2.451-2.038-3.203-3.603-.753-1.565-1.129-3.397-1.129-5.496 0-3.251.813-5.784 2.439-7.598 1.626-1.814 3.883-2.72 6.77-2.72 2.79 0 5.008.928 6.652 2.784 1.644 1.856 2.465 4.367 2.465 7.534Zm-15.195 0c0 2.548.51 4.489 1.528 5.824 1.02 1.334 2.518 2.001 4.496 2.001 1.977 0 3.479-.664 4.504-1.992 1.025-1.329 1.538-3.273 1.537-5.833.001-2.536-.512-4.462-1.537-5.778-1.025-1.316-2.539-1.975-4.541-1.974-1.978-.001-3.47.648-4.477 1.946-1.007 1.299-1.51 3.234-1.51 5.806Zm29.591-10.318c.886 0 1.68.072 2.384.217l-.418 2.804c-.825-.183-1.554-.274-2.184-.274-1.614 0-2.994.656-4.14 1.966-1.147 1.31-1.72 2.942-1.721 4.895v10.701h-3.02V99.418h2.493l.346 3.694h.145c.74-1.298 1.632-2.298 2.675-3.002a6.031 6.031 0 0 1 3.44-1.055Zm9.135 20.309h-3.02V99.418h3.02v19.946Zm-3.275-25.351c0-.691.17-1.198.51-1.519.339-.322.764-.483 1.273-.483.486 0 .904.164 1.256.492.352.327.528.831.528 1.51 0 .68-.176 1.186-.528 1.52-.352.333-.77.501-1.256.501-.509 0-.934-.168-1.273-.501-.34-.334-.51-.84-.51-1.52Zm12.521 5.405v12.94c0 1.625.369 2.839 1.11 3.639.74.801 1.899 1.201 3.476 1.201 2.087 0 3.612-.57 4.577-1.71.964-1.14 1.447-3.003 1.447-5.587V99.418h3.021v19.946h-2.493l-.437-2.675h-.164c-.619.982-1.477 1.735-2.575 2.256-1.098.522-2.351.783-3.758.783-2.427 0-4.244-.576-5.451-1.729-1.207-1.152-1.811-2.996-1.811-5.532V99.418h3.058Zm45.46 19.946v-12.975c0-1.59-.34-2.782-1.019-3.577-.68-.794-1.735-1.192-3.166-1.191-1.881-.001-3.27.539-4.168 1.619-.898 1.08-1.346 2.742-1.346 4.986v11.138h-3.021v-12.975c-.001-1.59-.341-2.782-1.02-3.577-.679-.794-1.741-1.192-3.185-1.191-1.892-.001-3.279.566-4.158 1.701-.88 1.134-1.319 2.994-1.32 5.578v10.464h-3.02V99.418h2.457l.491 2.73h.145c.571-.971 1.374-1.729 2.412-2.275 1.037-.546 2.199-.818 3.485-.818 3.118 0 5.156 1.128 6.114 3.385h.146c.595-1.044 1.456-1.869 2.585-2.476 1.128-.606 2.413-.909 3.858-.909 2.256 0 3.946.579 5.068 1.737 1.122 1.159 1.683 3.012 1.683 5.56v13.012h-3.021Z"/>
  </g>
</svg>
